<svg xmlns="http://www.w3.org/2000/svg" xmlns:xlink="http://www.w3.org/1999/xlink" width="200" zoomAndPan="magnify" viewBox="0 0 150 30.000001" height="40" preserveAspectRatio="xMidYMid meet" version="1.0"><defs><g/><clipPath id="48f059864d"><path d="M 3.582031 0.589844 L 31.164062 0.589844 L 31.164062 28.171875 L 3.582031 28.171875 Z M 3.582031 0.589844 " clip-rule="nonzero"/></clipPath><clipPath id="99f2247ed4"><path d="M 135 9 L 147.578125 9 L 147.578125 20 L 135 20 Z M 135 9 " clip-rule="nonzero"/></clipPath></defs><path fill="#d78629" d="M 20.390625 14.511719 C 20.390625 14.949219 20.308594 15.375 20.140625 15.78125 C 19.972656 16.1875 19.730469 16.542969 19.421875 16.855469 C 19.109375 17.164062 18.753906 17.40625 18.347656 17.574219 C 17.941406 17.742188 17.515625 17.824219 17.078125 17.824219 C 16.636719 17.824219 16.214844 17.742188 15.808594 17.574219 C 15.402344 17.40625 15.042969 17.164062 14.734375 16.855469 C 14.421875 16.542969 14.183594 16.1875 14.015625 15.78125 C 13.847656 15.375 13.761719 14.949219 13.761719 14.511719 C 13.761719 14.070312 13.847656 13.648438 14.015625 13.242188 C 14.183594 12.835938 14.421875 12.480469 14.734375 12.167969 C 15.042969 11.855469 15.402344 11.617188 15.808594 11.449219 C 16.214844 11.28125 16.636719 11.195312 17.078125 11.195312 C 17.515625 11.195312 17.941406 11.28125 18.347656 11.449219 C 18.753906 11.617188 19.109375 11.855469 19.421875 12.167969 C 19.730469 12.480469 19.972656 12.835938 20.140625 13.242188 C 20.308594 13.648438 20.390625 14.070312 20.390625 14.511719 Z M 20.390625 14.511719 " fill-opacity="1" fill-rule="nonzero"/><g clip-path="url(#48f059864d)"><path fill="#d78629" d="M 17.078125 0.59375 C 10.59375 0.59375 5.144531 5.03125 3.597656 11.03125 C 3.585938 11.085938 3.578125 11.140625 3.574219 11.195312 C 3.574219 11.5625 3.871094 11.859375 4.238281 11.859375 L 9.851562 11.859375 C 10.136719 11.859375 10.335938 11.730469 10.453125 11.472656 C 10.453125 11.472656 10.460938 11.457031 10.464844 11.449219 C 11.621094 8.953125 14.148438 7.21875 17.082031 7.21875 C 21.105469 7.21875 24.371094 10.480469 24.371094 14.507812 C 24.371094 18.535156 21.109375 21.800781 17.082031 21.800781 C 14.148438 21.800781 11.625 20.066406 10.464844 17.570312 C 10.460938 17.5625 10.453125 17.546875 10.453125 17.546875 C 10.347656 17.3125 10.109375 17.15625 9.851562 17.15625 L 4.238281 17.15625 C 3.871094 17.15625 3.578125 17.453125 3.578125 17.820312 C 3.578125 17.875 3.585938 17.933594 3.601562 17.984375 C 5.144531 23.988281 10.59375 28.425781 17.078125 28.425781 C 24.765625 28.421875 31.007812 22.191406 31.007812 14.507812 C 31.007812 6.820312 24.777344 0.589844 17.089844 0.589844 Z M 17.078125 0.59375 " fill-opacity="1" fill-rule="nonzero"/></g><g fill="#000000" fill-opacity="1"><g transform="translate(33.202647, 19.201921)"><g><path d="M 6.101562 0.296875 C 9.359375 0.296875 12.59375 -0.914062 12.59375 -3.542969 C 12.59375 -5.355469 11.285156 -6.253906 8.238281 -6.5625 L 6.605469 -6.71875 C 5.734375 -6.816406 5.1875 -6.957031 5.1875 -7.253906 C 5.1875 -7.660156 6.101562 -7.828125 7.363281 -7.828125 C 8.671875 -7.828125 10.035156 -7.476562 10.964844 -6.859375 L 12.75 -8.9375 C 11.566406 -9.796875 9.78125 -10.429688 7.265625 -10.429688 C 4.035156 -10.429688 0.957031 -9.429688 0.957031 -6.605469 C 0.957031 -4.933594 2.222656 -4.089844 5.160156 -3.78125 L 7.011719 -3.613281 C 7.855469 -3.527344 8.363281 -3.304688 8.363281 -3.007812 C 8.363281 -2.601562 7.632812 -2.402344 6.464844 -2.402344 C 4.835938 -2.402344 3.035156 -2.910156 1.980469 -3.65625 L -0.0703125 -1.390625 C 1.207031 -0.378906 3.402344 0.296875 6.101562 0.296875 Z M 6.101562 0.296875 "/></g></g></g><g fill="#000000" fill-opacity="1"><g transform="translate(46.114623, 19.201921)"><g><path d="M 0.125 0 L 4.175781 0 L 5.117188 -5.945312 L 5.144531 -5.945312 L 8.503906 0 L 13.589844 0 L 15.195312 -10.121094 L 11.144531 -10.121094 L 10.21875 -4.257812 L 10.191406 -4.257812 L 6.816406 -10.121094 L 1.730469 -10.121094 Z M 0.125 0 "/></g></g></g><g fill="#000000" fill-opacity="1"><g transform="translate(60.97955, 19.201921)"><g><path d="M -0.589844 0 L 3.851562 0 L 4.695312 -1.546875 L 8.8125 -1.546875 L 9.136719 0 L 13.621094 0 L 10.710938 -10.121094 L 5.648438 -10.121094 Z M 5.777344 -3.933594 L 7.6875 -7.464844 L 7.714844 -7.464844 L 8.476562 -3.933594 Z M 5.777344 -3.933594 "/></g></g></g><g fill="#000000" fill-opacity="1"><g transform="translate(75.170065, 19.201921)"><g><path d="M 0.125 0 L 4.457031 0 L 4.917969 -2.921875 L 8.503906 -2.921875 C 11.820312 -2.921875 13.675781 -4.398438 13.675781 -7 C 13.675781 -9.007812 12.242188 -10.121094 9.65625 -10.121094 L 1.730469 -10.121094 Z M 5.300781 -5.339844 L 5.664062 -7.703125 L 7.855469 -7.703125 C 8.785156 -7.703125 9.304688 -7.335938 9.304688 -6.703125 C 9.304688 -5.832031 8.65625 -5.339844 7.476562 -5.339844 Z M 5.300781 -5.339844 "/></g></g></g><g fill="#000000" fill-opacity="1"><g transform="translate(88.629988, 19.201921)"><g/></g></g><g fill="#000000" fill-opacity="1"><g transform="translate(91.468091, 19.201921)"><g><path d="M 7.222656 0.238281 C 10.570312 0.238281 13.660156 -1.460938 14.476562 -4.003906 L 10.582031 -4.609375 C 10.203125 -3.515625 8.953125 -2.851562 7.546875 -2.851562 C 5.988281 -2.851562 4.917969 -3.554688 4.917969 -4.722656 C 4.917969 -6.183594 6.3125 -7.265625 7.84375 -7.265625 C 9.078125 -7.265625 9.769531 -6.746094 9.910156 -5.832031 L 13.972656 -6.621094 C 13.773438 -8.867188 11.496094 -10.359375 7.957031 -10.359375 C 4.203125 -10.359375 0.589844 -8.027344 0.589844 -4.46875 C 0.589844 -1.53125 3.175781 0.238281 7.222656 0.238281 Z M 7.222656 0.238281 "/></g></g></g><g fill="#000000" fill-opacity="1"><g transform="translate(106.037957, 19.201921)"><g><path d="M 7.042969 0.351562 C 11.355469 0.351562 15.152344 -1.980469 15.152344 -5.890625 C 15.152344 -8.6875 12.679688 -10.472656 8.671875 -10.472656 C 4.355469 -10.472656 0.5625 -8.152344 0.5625 -4.230469 C 0.5625 -1.433594 3.035156 0.351562 7.042969 0.351562 Z M 7.519531 -2.742188 C 5.917969 -2.742188 4.933594 -3.484375 4.933594 -4.679688 C 4.933594 -6.3125 6.367188 -7.378906 8.195312 -7.378906 C 9.796875 -7.378906 10.78125 -6.632812 10.78125 -5.4375 C 10.78125 -3.824219 9.347656 -2.742188 7.519531 -2.742188 Z M 7.519531 -2.742188 "/></g></g></g><g fill="#000000" fill-opacity="1"><g transform="translate(121.296283, 19.201921)"><g><path d="M 0.125 0 L 6.886719 0 C 11.511719 0 14.054688 -2.09375 14.054688 -5.832031 C 14.054688 -8.585938 11.976562 -10.121094 8.207031 -10.121094 L 1.730469 -10.121094 Z M 4.777344 -2.921875 L 5.453125 -7.195312 L 7.464844 -7.195312 C 8.980469 -7.195312 9.8125 -6.5625 9.8125 -5.398438 C 9.8125 -3.824219 8.726562 -2.921875 6.789062 -2.921875 Z M 4.777344 -2.921875 "/></g></g></g><g clip-path="url(#99f2247ed4)"><g fill="#000000" fill-opacity="1"><g transform="translate(135.486799, 19.201921)"><g><path d="M 0.125 0 L 10.5 0 L 10.921875 -2.699219 L 4.738281 -2.699219 L 4.949219 -3.992188 L 10.429688 -3.992188 L 10.78125 -6.269531 L 5.300781 -6.269531 L 5.496094 -7.421875 L 11.539062 -7.421875 L 11.960938 -10.121094 L 1.730469 -10.121094 Z M 0.125 0 "/></g></g></g></g></svg>