<svg xmlns="http://www.w3.org/2000/svg" viewBox="0 0 197.16 30"><defs><style>.cls-1{isolation:isolate;}.cls-2{fill:#fc7c56;}.cls-3{opacity:0.99;}.cls-4{opacity:0.2;mix-blend-mode:multiply;}.cls-5{fill:#fff;}</style></defs><title>Cynic digital agency white logo </title><g class="cls-1"><g id="Layer_2" data-name="Layer 2"><g id="Layer_1-2" data-name="Layer 1"><rect class="cls-2" width="30" height="30" rx="3"/><g class="cls-3"><g class="cls-4"><path d="M24.61,5.2a2.18,2.18,0,0,0-1.12,4.06l-2.1,6.29-.22,0A2.19,2.19,0,0,0,19,17.25H13a2.19,2.19,0,0,0-4.33.47,2.21,2.21,0,0,0,.82,1.7L7.93,22.49a2.42,2.42,0,0,0-.54-.07,2.21,2.21,0,1,0,1.37.49l1.54-3.07a2.33,2.33,0,0,0,.53.07A2.19,2.19,0,0,0,13,18.19H19a2.19,2.19,0,1,0,3.25-2.34l2.1-6.29.23,0a2.19,2.19,0,1,0,0-4.38ZM7.39,25.86a1.25,1.25,0,0,1,0-2.5,1.27,1.27,0,0,1,.55.13H8a1.23,1.23,0,0,1,.69,1.11A1.25,1.25,0,0,1,7.39,25.86ZM10.83,19a1.25,1.25,0,0,1-.54-.12h0a1.23,1.23,0,0,1-.69-1.11A1.26,1.26,0,1,1,10.83,19Zm10.34,0a1.25,1.25,0,1,1,0-2.5,1.22,1.22,0,0,1,.38.07h0a1.25,1.25,0,0,1-.4,2.43ZM24.61,8.64a1.27,1.27,0,0,1-.39-.06h0a1.25,1.25,0,1,1,.41.07Z"/></g><path class="cls-5" d="M23.61,4.2a2.18,2.18,0,0,0-1.12,4.06l-2.1,6.29-.22,0A2.19,2.19,0,0,0,18,16.25H12a2.19,2.19,0,0,0-4.33.47,2.21,2.21,0,0,0,.82,1.7L6.93,21.49a2.42,2.42,0,0,0-.54-.07,2.21,2.21,0,1,0,1.37.49L9.3,18.84a2.33,2.33,0,0,0,.53.07A2.19,2.19,0,0,0,12,17.19H18a2.19,2.19,0,1,0,3.25-2.34l2.1-6.29.23,0a2.19,2.19,0,1,0,0-4.38ZM6.39,24.86a1.25,1.25,0,0,1,0-2.5,1.27,1.27,0,0,1,.55.13H7a1.23,1.23,0,0,1,.69,1.11A1.25,1.25,0,0,1,6.39,24.86ZM9.83,18a1.25,1.25,0,0,1-.54-.12h0a1.23,1.23,0,0,1-.69-1.11A1.26,1.26,0,1,1,9.83,18Zm10.34,0a1.25,1.25,0,1,1,0-2.5,1.22,1.22,0,0,1,.38.07h0a1.25,1.25,0,0,1-.4,2.43ZM23.61,7.64a1.27,1.27,0,0,1-.39-.06h0a1.25,1.25,0,1,1,.41.07Z"/></g><path class="cls-5" d="M42.82,18.49a4.81,4.81,0,0,1-1.93-2,6.71,6.71,0,0,1-.67-3.1,6.69,6.69,0,0,1,.67-3.08,4.73,4.73,0,0,1,1.93-2,5.86,5.86,0,0,1,2.93-.71,6.46,6.46,0,0,1,2.17.36,4.63,4.63,0,0,1,1.69,1l-.67,1.5a5.6,5.6,0,0,0-1.53-.9,4.62,4.62,0,0,0-1.63-.28,3.16,3.16,0,0,0-2.55,1.07,4.65,4.65,0,0,0-.9,3.07,4.77,4.77,0,0,0,.89,3.1,3.14,3.14,0,0,0,2.56,1.08,4.85,4.85,0,0,0,1.63-.28,5.65,5.65,0,0,0,1.53-.91l.67,1.51a4.77,4.77,0,0,1-1.69,1,6.46,6.46,0,0,1-2.17.36A5.76,5.76,0,0,1,42.82,18.49Z"/><path class="cls-5" d="M58.74,11,55,19.61a4.89,4.89,0,0,1-1.63,2.19,5.77,5.77,0,0,1-2.45.91l-.44-1.53a5.06,5.06,0,0,0,1.7-.65,2.8,2.8,0,0,0,.92-1.16l.26-.59L50,11h2.09l2.32,5.81L56.76,11Z"/><path class="cls-5" d="M67.3,14.1v5h-2V14.2a2.2,2.2,0,0,0-.36-1.4,1.43,1.43,0,0,0-1.14-.44,1.93,1.93,0,0,0-1.47.58,2.13,2.13,0,0,0-.56,1.55v4.57h-2V13.27A19.7,19.7,0,0,0,59.66,11h1.87l.14,1.33a2.92,2.92,0,0,1,1.13-1.13,3.18,3.18,0,0,1,1.61-.4Q67.31,10.78,67.3,14.1Z"/><path class="cls-5" d="M69.3,7.32h2.23v2H69.3Zm.13,11.74V11h2v8.08Z"/><path class="cls-5" d="M75.08,18.68a3.42,3.42,0,0,1-1.42-1.45,4.52,4.52,0,0,1-.5-2.2,4.55,4.55,0,0,1,.52-2.22,3.79,3.79,0,0,1,1.47-1.5,4.4,4.4,0,0,1,2.2-.53,5.22,5.22,0,0,1,1.67.27,3.24,3.24,0,0,1,1.29.75l-.56,1.41a3.64,3.64,0,0,0-1.09-.63,3.07,3.07,0,0,0-1.13-.22,2.18,2.18,0,0,0-1.7.68,2.87,2.87,0,0,0-.61,2,2.84,2.84,0,0,0,.6,1.95,2.17,2.17,0,0,0,1.71.67,3.07,3.07,0,0,0,1.13-.22,3.9,3.9,0,0,0,1.09-.64l.56,1.41a3.48,3.48,0,0,1-1.33.75,5.37,5.37,0,0,1-1.71.27A4.49,4.49,0,0,1,75.08,18.68Z"/><path class="cls-5" d="M86.18,7.67h4.19a6,6,0,0,1,4.35,1.49,5.54,5.54,0,0,1,1.54,4.19,5.6,5.6,0,0,1-1.54,4.22,6,6,0,0,1-4.35,1.49H86.18Zm4.07,9.71q3.93,0,3.93-4c0-2.66-1.31-4-3.93-4h-2v8Z"/><path class="cls-5" d="M98.1,7.32h2.23v2H98.1Zm.13,11.74V11h2v8.08Z"/><path class="cls-5" d="M110.21,11v7.83a3.7,3.7,0,0,1-1,2.86,4.3,4.3,0,0,1-3,1,6.66,6.66,0,0,1-3.3-.79l.32-1.52a6.2,6.2,0,0,0,2.93.77A1.9,1.9,0,0,0,108.23,19v-1.6a2.73,2.73,0,0,1-1.07,1.06,3.14,3.14,0,0,1-1.59.41,3.59,3.59,0,0,1-1.88-.5,3.4,3.4,0,0,1-1.27-1.43,4.57,4.57,0,0,1-.46-2.1,4.64,4.64,0,0,1,.46-2.11,3.44,3.44,0,0,1,1.27-1.42,3.5,3.5,0,0,1,1.88-.5,3.34,3.34,0,0,1,1.6.37,2.55,2.55,0,0,1,1.06,1V11Zm-2.55,5.64a2.67,2.67,0,0,0,.57-1.81,2.72,2.72,0,0,0-.56-1.81,2.19,2.19,0,0,0-3.13,0,2.67,2.67,0,0,0-.57,1.81,2.67,2.67,0,0,0,.57,1.81,2.2,2.2,0,0,0,3.12,0Z"/><path class="cls-5" d="M112.25,7.32h2.22v2h-2.22Zm.12,11.74V11h2v8.08Z"/><path class="cls-5" d="M119.09,12.49V16.1c0,.95.45,1.43,1.33,1.43a2.67,2.67,0,0,0,.8-.13V19a3.7,3.7,0,0,1-1.28.2,2.79,2.79,0,0,1-2.11-.77,3.07,3.07,0,0,1-.74-2.21V12.49h-1.55V11h1.55V9l2-.68V11h2.15v1.51Z"/><path class="cls-5" d="M130.34,11v8.08h-2V17.77a2.53,2.53,0,0,1-1.05,1.05,3.22,3.22,0,0,1-1.57.37,3.45,3.45,0,0,1-1.87-.51,3.36,3.36,0,0,1-1.27-1.46,5,5,0,0,1-.44-2.19,5.16,5.16,0,0,1,.45-2.21,3.64,3.64,0,0,1,1.27-1.51,3.31,3.31,0,0,1,1.86-.53,3.22,3.22,0,0,1,1.57.37,2.53,2.53,0,0,1,1.05,1V11Zm-2.51,6a3.09,3.09,0,0,0,.54-1.94,3.14,3.14,0,0,0-.54-2,2.06,2.06,0,0,0-3.1,0,3.18,3.18,0,0,0-.55,2,3,3,0,0,0,.55,1.92,1.9,1.9,0,0,0,1.56.67A1.86,1.86,0,0,0,127.83,16.94Z"/><path class="cls-5" d="M132.52,19.06V7.29h2V19.06Z"/><path class="cls-5" d="M149.93,19.06l-1.14-2.67h-5.57l-1.15,2.67H140l5.15-11.39h1.68L152,19.06Zm-6-4.27h4.19L146,9.91Z"/><path class="cls-5" d="M160.89,11v7.83a3.74,3.74,0,0,1-1,2.86,4.34,4.34,0,0,1-3.06,1,6.66,6.66,0,0,1-3.3-.79l.32-1.52a6.2,6.2,0,0,0,2.93.77A1.9,1.9,0,0,0,158.9,19v-1.6a2.73,2.73,0,0,1-1.07,1.06,3.13,3.13,0,0,1-1.58.41,3.57,3.57,0,0,1-1.88-.5,3.36,3.36,0,0,1-1.28-1.43,4.57,4.57,0,0,1-.46-2.1,4.64,4.64,0,0,1,.46-2.11,3.39,3.39,0,0,1,1.28-1.42,3.48,3.48,0,0,1,1.88-.5,3.33,3.33,0,0,1,1.59.37,2.55,2.55,0,0,1,1.06,1V11Zm-2.56,5.64a2.67,2.67,0,0,0,.57-1.81,2.72,2.72,0,0,0-.56-1.81,1.93,1.93,0,0,0-1.57-.66,2,2,0,0,0-1.56.66,2.67,2.67,0,0,0-.56,1.81,2.67,2.67,0,0,0,.56,1.81,2,2,0,0,0,1.56.65A2,2,0,0,0,158.33,16.62Z"/><path class="cls-5" d="M170.12,15.13h-5.57A2.9,2.9,0,0,0,165.2,17a2.28,2.28,0,0,0,1.73.62,4,4,0,0,0,2.47-.87l.57,1.38a4.28,4.28,0,0,1-1.41.74,5.28,5.28,0,0,1-1.71.28,4.25,4.25,0,0,1-3.12-1.12A4.13,4.13,0,0,1,162.6,15a4.71,4.71,0,0,1,.49-2.19,3.69,3.69,0,0,1,1.4-1.5,3.82,3.82,0,0,1,2-.53,3.36,3.36,0,0,1,2.63,1.08,4.31,4.31,0,0,1,1,3Zm-4.86-2.44a2.36,2.36,0,0,0-.65,1.37h3.76a2.19,2.19,0,0,0-.55-1.38,1.66,1.66,0,0,0-1.25-.46A1.82,1.82,0,0,0,165.26,12.69Z"/><path class="cls-5" d="M179.33,14.1v5h-2V14.2a2.2,2.2,0,0,0-.36-1.4,1.43,1.43,0,0,0-1.14-.44,1.93,1.93,0,0,0-1.47.58,2.13,2.13,0,0,0-.56,1.55v4.57h-2V13.27a19.7,19.7,0,0,0-.12-2.29h1.87l.14,1.33a2.86,2.86,0,0,1,1.13-1.13,3.18,3.18,0,0,1,1.61-.4Q179.34,10.78,179.33,14.1Z"/><path class="cls-5" d="M182.93,18.68a3.42,3.42,0,0,1-1.42-1.45A4.64,4.64,0,0,1,181,15a4.66,4.66,0,0,1,.52-2.22,3.79,3.79,0,0,1,1.47-1.5,4.41,4.41,0,0,1,2.21-.53,5.26,5.26,0,0,1,1.67.27,3.24,3.24,0,0,1,1.29.75l-.57,1.41a3.72,3.72,0,0,0-1.08-.63,3.16,3.16,0,0,0-1.14-.22,2.16,2.16,0,0,0-1.69.68,2.82,2.82,0,0,0-.61,2,2.84,2.84,0,0,0,.6,1.95,2.16,2.16,0,0,0,1.7.67,3.16,3.16,0,0,0,1.14-.22,4,4,0,0,0,1.08-.64l.57,1.41a3.64,3.64,0,0,1-1.33.75,5.48,5.48,0,0,1-1.72.27A4.49,4.49,0,0,1,182.93,18.68Z"/><path class="cls-5" d="M197.16,11l-3.76,8.63a5,5,0,0,1-1.63,2.19,5.82,5.82,0,0,1-2.45.91l-.45-1.53a5,5,0,0,0,1.7-.65,2.72,2.72,0,0,0,.92-1.16l.26-.59L188.39,11h2.09l2.32,5.81L195.17,11Z"/></g></g></g></svg>