<svg xmlns="http://www.w3.org/2000/svg" xmlns:xlink="http://www.w3.org/1999/xlink" width="200" zoomAndPan="magnify" viewBox="0 0 150 30.000001" height="40" preserveAspectRatio="xMidYMid meet" version="1.0"><defs><g/><clipPath id="ec2e3d0d75"><path d="M 3.582031 0.589844 L 31.164062 0.589844 L 31.164062 28.171875 L 3.582031 28.171875 Z M 3.582031 0.589844 " clip-rule="nonzero"/></clipPath><clipPath id="6f02b7d2a7"><path d="M 136 9 L 147.578125 9 L 147.578125 20 L 136 20 Z M 136 9 " clip-rule="nonzero"/></clipPath></defs><path fill="#ffffff" d="M 20.390625 14.511719 C 20.390625 14.949219 20.308594 15.375 20.140625 15.78125 C 19.972656 16.1875 19.730469 16.542969 19.421875 16.855469 C 19.109375 17.164062 18.753906 17.40625 18.347656 17.574219 C 17.941406 17.742188 17.515625 17.824219 17.078125 17.824219 C 16.636719 17.824219 16.214844 17.742188 15.808594 17.574219 C 15.402344 17.40625 15.042969 17.164062 14.734375 16.855469 C 14.421875 16.542969 14.183594 16.1875 14.015625 15.78125 C 13.847656 15.375 13.761719 14.949219 13.761719 14.511719 C 13.761719 14.070312 13.847656 13.648438 14.015625 13.242188 C 14.183594 12.835938 14.421875 12.480469 14.734375 12.167969 C 15.042969 11.855469 15.402344 11.617188 15.808594 11.449219 C 16.214844 11.28125 16.636719 11.195312 17.078125 11.195312 C 17.515625 11.195312 17.941406 11.28125 18.347656 11.449219 C 18.753906 11.617188 19.109375 11.855469 19.421875 12.167969 C 19.730469 12.480469 19.972656 12.835938 20.140625 13.242188 C 20.308594 13.648438 20.390625 14.070312 20.390625 14.511719 Z M 20.390625 14.511719 " fill-opacity="1" fill-rule="nonzero"/><g clip-path="url(#ec2e3d0d75)"><path fill="#ffffff" d="M 17.078125 0.59375 C 10.59375 0.59375 5.144531 5.03125 3.597656 11.03125 C 3.585938 11.085938 3.578125 11.140625 3.574219 11.195312 C 3.574219 11.5625 3.871094 11.859375 4.238281 11.859375 L 9.851562 11.859375 C 10.136719 11.859375 10.335938 11.730469 10.453125 11.472656 C 10.453125 11.472656 10.460938 11.457031 10.464844 11.449219 C 11.621094 8.953125 14.148438 7.21875 17.082031 7.21875 C 21.105469 7.21875 24.371094 10.480469 24.371094 14.507812 C 24.371094 18.535156 21.109375 21.800781 17.082031 21.800781 C 14.148438 21.800781 11.625 20.066406 10.464844 17.570312 C 10.460938 17.5625 10.453125 17.546875 10.453125 17.546875 C 10.347656 17.3125 10.109375 17.15625 9.851562 17.15625 L 4.238281 17.15625 C 3.871094 17.15625 3.578125 17.453125 3.578125 17.820312 C 3.578125 17.875 3.585938 17.933594 3.601562 17.984375 C 5.144531 23.988281 10.59375 28.425781 17.078125 28.425781 C 24.765625 28.421875 31.007812 22.191406 31.007812 14.507812 C 31.007812 6.820312 24.777344 0.589844 17.089844 0.589844 Z M 17.078125 0.59375 " fill-opacity="1" fill-rule="nonzero"/></g><g fill="#ffffff" fill-opacity="1"><g transform="translate(34.106308, 19.3049)"><g><path d="M 6.089844 0.292969 C 9.34375 0.292969 12.570312 -0.910156 12.570312 -3.535156 C 12.570312 -5.34375 11.265625 -6.242188 8.222656 -6.550781 L 6.59375 -6.707031 C 5.722656 -6.804688 5.175781 -6.945312 5.175781 -7.238281 C 5.175781 -7.644531 6.089844 -7.816406 7.351562 -7.816406 C 8.65625 -7.816406 10.015625 -7.464844 10.941406 -6.847656 L 12.726562 -8.921875 C 11.546875 -9.777344 9.765625 -10.410156 7.253906 -10.410156 C 4.027344 -10.410156 0.953125 -9.414062 0.953125 -6.59375 C 0.953125 -4.925781 2.214844 -4.082031 5.148438 -3.773438 L 7 -3.605469 C 7.84375 -3.523438 8.347656 -3.296875 8.347656 -3.003906 C 8.347656 -2.59375 7.617188 -2.398438 6.453125 -2.398438 C 4.828125 -2.398438 3.03125 -2.902344 1.976562 -3.648438 L -0.0703125 -1.390625 C 1.207031 -0.378906 3.394531 0.292969 6.089844 0.292969 Z M 6.089844 0.292969 "/></g></g></g><g fill="#ffffff" fill-opacity="1"><g transform="translate(46.998476, 19.3049)"><g><path d="M 0.125 0 L 4.167969 0 L 5.105469 -5.933594 L 5.136719 -5.933594 L 8.488281 0 L 13.566406 0 L 15.167969 -10.101562 L 11.125 -10.101562 L 10.199219 -4.25 L 10.171875 -4.25 L 6.804688 -10.101562 L 1.726562 -10.101562 Z M 0.125 0 "/></g></g></g><g fill="#ffffff" fill-opacity="1"><g transform="translate(61.840595, 19.3049)"><g><path d="M -0.589844 0 L 3.84375 0 L 4.6875 -1.542969 L 8.796875 -1.542969 L 9.121094 0 L 13.59375 0 L 10.691406 -10.101562 L 5.640625 -10.101562 Z M 5.765625 -3.929688 L 7.675781 -7.449219 L 7.703125 -7.449219 L 8.460938 -3.929688 Z M 5.765625 -3.929688 "/></g></g></g><g fill="#ffffff" fill-opacity="1"><g transform="translate(76.009348, 19.3049)"><g><path d="M 0.125 0 L 4.449219 0 L 4.910156 -2.917969 L 8.488281 -2.917969 C 11.800781 -2.917969 13.652344 -4.390625 13.652344 -6.988281 C 13.652344 -8.992188 12.21875 -10.101562 9.636719 -10.101562 L 1.726562 -10.101562 Z M 5.289062 -5.332031 L 5.652344 -7.6875 L 7.84375 -7.6875 C 8.769531 -7.6875 9.289062 -7.324219 9.289062 -6.691406 C 9.289062 -5.824219 8.640625 -5.332031 7.464844 -5.332031 Z M 5.289062 -5.332031 "/></g></g></g><g fill="#ffffff" fill-opacity="1"><g transform="translate(89.448628, 19.3049)"><g/></g></g><g fill="#ffffff" fill-opacity="1"><g transform="translate(92.282381, 19.3049)"><g><path d="M 7.210938 0.238281 C 10.550781 0.238281 13.636719 -1.460938 14.449219 -4 L 10.566406 -4.601562 C 10.1875 -3.507812 8.9375 -2.847656 7.535156 -2.847656 C 5.976562 -2.847656 4.910156 -3.550781 4.910156 -4.714844 C 4.910156 -6.171875 6.300781 -7.253906 7.828125 -7.253906 C 9.0625 -7.253906 9.75 -6.734375 9.890625 -5.824219 L 13.945312 -6.609375 C 13.75 -8.851562 11.476562 -10.339844 7.941406 -10.339844 C 4.195312 -10.339844 0.589844 -8.011719 0.589844 -4.460938 C 0.589844 -1.527344 3.171875 0.238281 7.210938 0.238281 Z M 7.210938 0.238281 "/></g></g></g><g fill="#ffffff" fill-opacity="1"><g transform="translate(106.829907, 19.3049)"><g><path d="M 7.027344 0.351562 C 11.335938 0.351562 15.125 -1.976562 15.125 -5.878906 C 15.125 -8.671875 12.65625 -10.453125 8.65625 -10.453125 C 4.347656 -10.453125 0.5625 -8.136719 0.5625 -4.222656 C 0.5625 -1.429688 3.03125 0.351562 7.027344 0.351562 Z M 7.507812 -2.734375 C 5.90625 -2.734375 4.925781 -3.480469 4.925781 -4.671875 C 4.925781 -6.300781 6.355469 -7.367188 8.179688 -7.367188 C 9.777344 -7.367188 10.761719 -6.621094 10.761719 -5.429688 C 10.761719 -3.816406 9.328125 -2.734375 7.507812 -2.734375 Z M 7.507812 -2.734375 "/></g></g></g><g fill="#ffffff" fill-opacity="1"><g transform="translate(122.064832, 19.3049)"><g><path d="M 0.125 0 L 6.875 0 C 11.492188 0 14.03125 -2.089844 14.03125 -5.824219 C 14.03125 -8.570312 11.953125 -10.101562 8.195312 -10.101562 L 1.726562 -10.101562 Z M 4.769531 -2.917969 L 5.445312 -7.183594 L 7.449219 -7.183594 C 8.964844 -7.183594 9.792969 -6.550781 9.792969 -5.386719 C 9.792969 -3.816406 8.710938 -2.917969 6.777344 -2.917969 Z M 4.769531 -2.917969 "/></g></g></g><g clip-path="url(#6f02b7d2a7)"><g fill="#ffffff" fill-opacity="1"><g transform="translate(136.233585, 19.3049)"><g><path d="M 0.125 0 L 10.480469 0 L 10.902344 -2.695312 L 4.726562 -2.695312 L 4.9375 -3.984375 L 10.410156 -3.984375 L 10.761719 -6.257812 L 5.289062 -6.257812 L 5.484375 -7.40625 L 11.519531 -7.40625 L 11.9375 -10.101562 L 1.726562 -10.101562 Z M 0.125 0 "/></g></g></g></g></svg>